<svg width="1080" height="1080" viewBox="0 0 1080 1080" fill="none" xmlns="http://www.w3.org/2000/svg"><path d="M607.72 646.81c-18.42 63.67-27.88 109.76-18.14 142.76.227.767.378 1.554.45 2.35h-25.06c-9.26-37.36.11-84.93 18.34-148.5h24.88a12.106 12.106 0 0 1-.47 3.39zM557.32 643.39a11.936 11.936 0 0 1-.48 3.37l-.94 3.28c-17.61 60.89-39.24 135.68-47.85 172.77h-25c7.84-35.67 30.83-115.19 49.38-179.37l24.89-.05zM453.85 643.39a11.837 11.837 0 0 1-.57 3.65c-31.68 100.5-50.27 144.92-67 172.1h-29.4c17.48-23.28 35.89-61.67 72-175.75h24.97zM502.41 643.39a12.116 12.116 0 0 1-.48 3.39c-10 34.68-20.35 66.63-29.44 94.81-6.62 20.53-12.48 38.68-16.82 53.58h-25.36c4.59-16.47 11.27-37.18 19-61.06 8.75-27.09 18.63-57.69 28.23-90.72h24.87zM400.52 643.39a11.837 11.837 0 0 1-.57 3.65c-30.38 96.33-49.28 124.77-65.38 144.85h-31.38c2.6-3.35 5.17-6.48 7.66-9.51 15.62-18.94 33.31-40.38 64.69-139l24.98.01z" fill="#fff" stroke="#1F1F1F" stroke-width="4.5" stroke-linecap="round" stroke-linejoin="round"/><path d="M766.88 315.81c-94.85 46.55-96.43 47.27-96.43 47.27s-131.74 28.73-235.93-49.27c-119.49-101-193.28-19.7-365.18 96.3v.1c.38-.26.74-.54 1.12-.79 27.53-17.56 146.58 162 125.51 183.33l87-83.7v82.22h476.61s35.8-23.69 35.76-23.82c-5.24-18.45 219.07-85 226.48-68.31-67.31-184.69-88.96-259.33-254.94-183.33z" fill="#C2E7FF" stroke="#C2E7FF" stroke-width="4.5" stroke-linecap="round" stroke-linejoin="round"/><path d="M190.309 597.344c27.526-17.563 23-73.865-10.108-125.754-33.108-51.89-82.262-79.717-109.787-62.154-27.525 17.562-23 73.864 10.109 125.754 33.108 51.889 82.261 79.717 109.786 62.154zM994.52 555.36c-17.59 13.6-41.91 25.7-70 33.66-27 7.65-53 10.26-74.58 8.39-3.62-.313-7.107-.75-10.46-1.31-22-3.67-38-12.63-43.3-26.07-.33-.83-.62-1.69-.87-2.55-5.24-18.45 9.73-40.29 36.85-58.49 16.63-11.16 37.83-20.94 61.75-27.73 22.94-6.53 45.21-9.38 64.66-8.93 33.87.77 59.18 11.56 64.54 30.47 4.71 16.48-6.74 35.68-28.59 52.56z" fill="#1F1F1F" stroke="#1F1F1F" stroke-width="4.5" stroke-linecap="round" stroke-linejoin="round"/><path d="M766.88 315.81c-94.85 46.55-96.43 47.27-96.43 47.27l-8.6-47.73s-81-1.55-103.05.27c-26.61 72.82-116.66 3.57-124.28-1.81 27.62 141.32 229.62 222.81 332.36 2z" fill="#DBA77F" stroke="#1F1F1F" stroke-width="4.5" stroke-linecap="round" stroke-linejoin="round"/><path d="M994.52 555.36c-10.08-25.667-22.053-53.333-35.92-83-19.45-.45-41.72 2.4-64.66 8.93-23.92 6.79-45.12 16.57-61.75 27.73l17.78 88.42 1.14 5.68-133.58-84.57c-14-6-32.34-106.82-40.28-119.83-18.25-29.88-48.09-20.66-54.85 5l10.4.18c23.08.34-63.08 89.89 3.87 160 7.67 6.4 96 79.52 96 79.52 44.26 36.28 95.76 77.9 133.85 106.92 149.87 114.13 225.06 52.18 128-194.98z" fill="#DBA77F" stroke="#1F1F1F" stroke-width="4.5" stroke-linecap="round" stroke-linejoin="round"/><path d="M622.4 403.71c2.69-10.23 9.06-17.83 16.89-21.39 0 0-18.5-12.35-31.47-2.24a29.835 29.835 0 0 0-11.83 23.23l26.41.4z" fill="#DBA77F" stroke="#1F1F1F" stroke-width="4.5" stroke-linecap="round" stroke-linejoin="round"/><path d="M605.94 381.64c-5.11-1.7-11.93-2.55-17.48 1.77a24.553 24.553 0 0 0-9.32 19.62l16.86.26a29.827 29.827 0 0 1 9.94-21.65z" fill="#DBA77F" stroke="#1F1F1F" stroke-width="4.5" stroke-linecap="round" stroke-linejoin="round"/><path d="M851.12 603.09l86.98 54.2M659.03 436.31c21.85 45.54-16 68 25.87 114.94M795.35 567.48l-38.34-89.05" stroke="#1F1F1F" stroke-width="4.5" stroke-linecap="round" stroke-linejoin="round"/><path d="M632.8 403.89c-96.66-1.28-107.76-1.59-176.86-2.55l-27 71-39.05 119h237.85s23.53-66.62 31.09-120.38c4.8-34.24-2.95-66.73-26.03-67.07z" fill="#fff" stroke="#1F1F1F" stroke-width="4.5" stroke-linecap="round" stroke-linejoin="round"/><path d="M632.8 403.89c-96.66-1.28-107.76-1.59-176.86-2.55l-27 71" fill="#C2E7FF"/><path d="M632.8 403.89c-96.66-1.28-107.76-1.59-176.86-2.55l-27 71" stroke="#1F1F1F" stroke-width="4.5" stroke-linecap="round" stroke-linejoin="round"/><path d="M632.8 403.89c-96.66-1.28-107.76-1.59-176.86-2.55l-27 71" fill="#C2E7FF"/><path d="M632.8 403.89c-96.66-1.28-107.76-1.59-176.86-2.55l-27 71" stroke="#1F1F1F" stroke-width="4.5" stroke-linecap="round" stroke-linejoin="round"/><path d="M632.8 403.89c-88.67-1.18-105.34-1.54-160.82-2.33l-17.4-.22c-78.35-.07-75.59 70.94-75.63 71h199.09s13.27-65.39 54.93-68.42" fill="#fff"/><path d="M632.8 403.89c-88.67-1.18-105.34-1.54-160.82-2.33l-17.4-.22c-78.35-.07-75.59 70.94-75.63 71h199.09s13.27-65.39 54.93-68.42" stroke="#1F1F1F" stroke-width="4.5" stroke-linecap="round" stroke-linejoin="round"/><path d="M513.53 208.02c-5.84 10.64-4.56 32.85 21.82 57.84 17.04-14.14 15.6-63.84-21.82-57.84zM723.91 214.07c-24.49-12.68-57.46 40.25-29.83 61.86 24.3-8.05 55.79-51.81 29.83-61.86z" fill="#DBA77F" stroke="#1F1F1F" stroke-width="4.5" stroke-linecap="round" stroke-linejoin="round"/><path d="M617.65 130.62c-71.46-2-92.61 77.4-87.53 103.67 10.49 121.93 115.55 158.25 172.59 23.2 19.61-46.39 19.06-123.92-85.06-126.87z" fill="#DBA77F" stroke="#1F1F1F" stroke-width="4.5" stroke-linecap="round" stroke-linejoin="round"/><path d="M611.26 257.49c-.88 15.63-5.83 30.62-14.37 49.21a73.747 73.747 0 0 0 16.25 1.11" stroke="#1F1F1F" stroke-width="4.5" stroke-linecap="round" stroke-linejoin="round"/><path fill-rule="evenodd" clip-rule="evenodd" d="M652.308 272.91l-.003.008.003-.008zm-2.776 0l.003.008-.003-.008zm0 1.48l.003-.008a.162.162 0 0 0-.003.008zm2.773-.008l.003.008-.003-.008zm-3.349-4.428c.397-.395 1.063-.834 1.964-.834s1.567.439 1.964.834c.388.385.634.831.792 1.203.32.752.464 1.635.464 2.493 0 .858-.144 1.741-.464 2.493a3.755 3.755 0 0 1-.792 1.203c-.397.395-1.063.834-1.964.834s-1.567-.439-1.964-.834a3.755 3.755 0 0 1-.792-1.203c-.321-.752-.464-1.635-.464-2.493 0-.858.143-1.741.464-2.493.158-.372.404-.818.792-1.203zM576.728 271.69l-.003.008a.162.162 0 0 0 .003-.008zm-2.776 0l.003.008-.003-.008zm0 1.48l.003-.008-.003.008zm2.773-.008l.003.008-.003-.008zm-3.349-4.428c.397-.395 1.063-.834 1.964-.834s1.567.439 1.964.834c.388.385.634.831.792 1.203.32.752.464 1.635.464 2.493 0 .858-.144 1.741-.464 2.493a3.755 3.755 0 0 1-.792 1.203c-.397.395-1.063.834-1.964.834s-1.567-.439-1.964-.834a3.755 3.755 0 0 1-.792-1.203c-.32-.752-.464-1.635-.464-2.493 0-.858.144-1.741.464-2.493.158-.372.404-.818.792-1.203z" fill="#1F1F1F"/><path d="M530.14 234.29a102.933 102.933 0 0 0 39.6-30.25c24.06 21.45 56.52 18.28 91.41 8 11.78 26.29 26 39.38 41.58 45.43l24-49.25c77-30.51 62.8-107.58-5.35-88.19-2.4-76.9-72.36-92.32-111.48-37.8-19.55-64.57-93.07-31.37-79.76 51.18-53.65-25.62-86.56 39.5-7.23 79.79l7.23 21.09z" fill="#444746" stroke="#444746" stroke-width="4.5" stroke-linecap="round" stroke-linejoin="round"/><path d="M370.27 355.93c-22.19 12.88-187.26 119.73-187.26 119.73-2.43-3.85-5.7-8.77-8.48-12.56-17.45-23.91-38.29-41.8-57.69-51.23C49.52 507.07 6.51 620.98 82.6 643.38c66.24 19.51 158.67-83.7 257.13-185.27 6.19 5.22 24.65 1 40.26-7 7.3-.62 16.9-3.77 26.07-8.33 21.71 1.32 54.15-22.05 57.9-41.34 7.72-.05 42.42.68 69.25 1 19.86-20.74-134.69-62.88-162.94-46.51z" fill="#DBA77F" stroke="#1F1F1F" stroke-width="4.5" stroke-linecap="round" stroke-linejoin="round"/><path d="M464.14 400.44a15.416 15.416 0 0 0-1.11-8.84c-6.77-14.81-47-20.51-47-20.51M406.14 442.81c17.59-8.74 33.54-22.67 28.43-33.84-6.77-14.81-47.05-20.51-47.05-20.51" stroke="#1F1F1F" stroke-width="4.5" stroke-linecap="round" stroke-linejoin="round"/><path d="M372.39 436.31s-39 4.68-34.47 19.1c5.33 16.88 75.49-12.2 65.47-34.14-6.77-14.81-26.92-14.46-26.92-14.46M183.01 475.66L110 523.43" stroke="#1F1F1F" stroke-width="4.5" stroke-linecap="round" stroke-linejoin="round"/><path d="M755.04 591.3H275.75c-14.382 0-26.04 11.659-26.04 26.04 0 14.382 11.658 26.04 26.04 26.04h479.29c14.381 0 26.04-11.658 26.04-26.04 0-14.381-11.659-26.04-26.04-26.04z" fill="#FFDF99" stroke="#1F1F1F" stroke-width="4.5" stroke-miterlimit="10"/><path d="M618.02 916.18h-44.55V937h44.55v-20.82zM498.78 916.18h-44.55V937h44.55v-20.82zM545.965 1014.37l-35.959-26.299-12.29 16.809 35.959 26.3 12.29-16.81zM386.444 980.518l24.264-37.363-17.461-11.339-24.264 37.363 17.461 11.339zM274.494 944.61l44.429-3.286-1.536-20.763-44.429 3.286 1.536 20.763z" fill="#fff" stroke="#1F1F1F" stroke-width="4.5" stroke-linecap="round" stroke-linejoin="round"/><path d="M909.24 294.48c-32.39-15.39-75.76-9.15-142.36 21.34M434.52 313.81c-74.68-63.1-131.51-55-205.6-11.76M726.76 208.24c77-30.51 62.8-107.58-5.35-88.19-2.4-76.9-72.36-92.32-111.48-37.8" stroke="#1F1F1F" stroke-width="4.5" stroke-linecap="round" stroke-linejoin="round"/><path d="M567.14 164.49s5.35-45.19 50.52-49.18c26.56 0 33.27 37.56 33.27 37.56s24.46-18.95 43.43-8.31" stroke="#1F1F1F" stroke-width="4.5" stroke-linecap="round" stroke-linejoin="round"/></svg>