<svg width="1080" height="1080" viewBox="0 0 1080 1080" fill="none" xmlns="http://www.w3.org/2000/svg"><path d="M932.109 234.23a15 15 0 0 0-17.81 11.3 145.763 145.763 0 0 1-141.73 111.8 145.745 145.745 0 0 1-139.88-104.78l26.65 15.3a12 12 0 0 0 16.35-4.42 12 12 0 0 0-4.42-16.35l-44.13-25.33-20.76-11.92-11.92 20.76-25.33 44.13a12.003 12.003 0 0 0 4.42 16.34 11.998 11.998 0 0 0 16.34-4.42l14.28-24.86c21.64 72.51 88.93 125.54 168.39 125.54 82.85 0 152.49-57.65 170.92-134.94a15.001 15.001 0 0 0-11.37-18.15zM606.219 186.34a15.002 15.002 0 0 0 17.81-11.3 145.75 145.75 0 0 1 141.73-111.8 145.753 145.753 0 0 1 139.93 104.78l-26.64-15.3a12 12 0 0 0-16.35 4.42 11.998 11.998 0 0 0 4.43 16.34l44.12 25.34 20.76 11.92 11.93-20.77 25.33-44.12a11.997 11.997 0 0 0-4.42-16.34 12 12 0 0 0-16.35 4.42l-14.27 24.86c-21.64-72.52-88.94-125.54-168.39-125.54-82.86 0-152.49 57.65-170.92 134.94a15.011 15.011 0 0 0 1.849 11.442 14.99 14.99 0 0 0 4.052 4.303 14.985 14.985 0 0 0 5.399 2.405z" fill="#FFDF99" stroke="#1F1F1F" stroke-width="4.5" stroke-linecap="round" stroke-linejoin="round"/><path d="M448.31 586.77L439 459.74l65.18-23.94 42.56 109.73-98.43 41.24z" fill="#F2D9C4" stroke="#1F1F1F" stroke-width="4.5" stroke-linecap="round" stroke-linejoin="round"/><path d="M81.19 671.24c-2.33-40.63 20-62.52 93.77-86.47 73.77-23.95 268.36-58.86 268.36-58.86l3.66 42.24s-250.07 123.7-297.29 137.67c-35.86 10.61-67.17-11.31-68.5-34.58z" fill="#1F1F1F" stroke="#1F1F1F" stroke-width="4.5" stroke-linecap="round" stroke-linejoin="round"/><path d="M714.69 925.96h98.76s100.76-305.27 117.72-375.1c16.96-69.83-50.2-121-109.74-99.77-58.86 20.95-128.69 43.9-128.69 43.9l21.95 430.97z" fill="#C2E7FF" stroke="#C2E7FF" stroke-width="4.5" stroke-linecap="round" stroke-linejoin="round"/><path d="M709.691 489c-101.76 29.93-261.38 97.77-261.38 97.77l-5-60.85c-1.41.33-194.79 35-268.35 58.85-11.89 3.86-22.44 7.67-31.78 11.51-12.52 62.48-34.59 141.06-6.13 198 29.93 59.85 99.77 97.76 187.56 85.79 87.79-11.97 239.43-113.73 239.43-113.73l-83.8 179.57c14-18.95 62.81-19.95 120.71-19.95h120.74s101.76-283.32 111.73-341.19c9.97-57.87-21.97-125.7-123.73-95.77z" fill="#C2E7FF" stroke="#C2E7FF" stroke-width="4.5" stroke-linecap="round" stroke-linejoin="round"/><path d="M600.95 925.96h120.74s101.76-283.32 111.73-341.19c9.97-57.87-21.94-125.7-123.7-95.77-101.76 29.93-261.38 97.77-261.38 97.77" stroke="#1F1F1F" stroke-width="4.5" stroke-linecap="round" stroke-linejoin="round"/><path d="M591.97 925.96c-57.9 0-100.76 4-111.73 19.95-13.34 19.41-9 37.91 50.87 37.91s190.58-57.86 190.58-57.86H591.97z" fill="#1F1F1F" stroke="#1F1F1F" stroke-width="4.5" stroke-linecap="round" stroke-linejoin="round"/><path d="M515.481 431.14s-24.6-63.18-39.9-93.11c-15.3-29.93-20.62-38.6-39.89-53.87-7.36-5.85-16.87-11.06-27-15.49-1.22 1.9-16.36 24.25-54.45 20.81-51.54-4.66-62.52-34.92-62.52-34.92a39.769 39.769 0 0 0 4.45-1.29c-5 .62-10 1.38-14.75 2.29-23 4.36-65.85 16.63-93.78 54.54-27.93 37.91-63.85 123-63.85 123l30.59 16-69.16 192.87h.06c9.46-23.35 35.87-39.72 89.72-57.19 73.83-23.94 268.36-58.86 268.36-58.86l-4.32-66.17 76.44-28.61z" fill="#fff" stroke="#1F1F1F" stroke-width="4.5" stroke-linecap="round" stroke-linejoin="round"/><path d="M123.75 433.14c5.12-14.82 19.83-18.6 48.55-23 32.92-5 93.18-5 127.7 2.66 35.91 8 43.56 20.29 39.57 34.25-3.99 13.96-29.26 23.38-68.17 24.38s-82.14 2.33-110.07-2.66c-27.93-4.99-43.9-17.34-37.58-35.63z" fill="#1F1F1F" stroke="#1F1F1F" stroke-width="4.5" stroke-linecap="round" stroke-linejoin="round"/><path d="M469.37 472.15c7.23-11.74 15.52-14.63 26.61-14.63s71.71 21.51 79.71 24.17 10.87 9.31.67 13.63-20.06.78-46.22-3.21-51.44-7.1-58.53-8.87c-7.09-1.77-5.78-5.32-2.24-11.09z" fill="#F2D9C4" stroke="#1F1F1F" stroke-width="4.5" stroke-linecap="round" stroke-linejoin="round"/><path d="M550.071 489c-26.13-6.4-61.19-20.61-77.15-22.61-15.96-2-25.27 2-32.59 13.3-7.32 11.3-34.58 47.22-34.58 47.22l-126.37-6 32.12-105.09c-3.46-1.05-7.28-2.05-11.5-3-29.34-6.52-77.27-7.48-111.21-4.56-11.34 45-33.7 133.78-37.77 165.18-4.66 35.91 12 69.83 58.53 65.84 46.53-3.99 186.88-48.55 207.5-55.87 20.62-7.32 45.23-42.89 52.54-55.53 7.31-12.64 14.64-26.27 14.64-26.27s39.9 8.31 55.86 6.32c15.96-1.99 31.7-13.61 9.98-18.93z" fill="#F2D9C4" stroke="#1F1F1F" stroke-width="4.5" stroke-linecap="round" stroke-linejoin="round"/><path d="M412.399 601.73s-9-27.93 16-42.89 153.63-64.85 153.63-64.85l17.46-159.71a35.772 35.772 0 0 1 24.32-30.07l190.5-63a19.899 19.899 0 0 1 26.05 20.88l-18.9 189-409.06 150.64z" fill="#fff" stroke="#1F1F1F" stroke-width="4.5" stroke-linecap="round" stroke-linejoin="round"/><path d="M846.828 617.758L735.204 729.382c-15.531 15.531-15.531 40.712 0 56.243l111.624 111.624c15.531 15.531 40.712 15.531 56.243 0l111.619-111.624c15.54-15.531 15.54-40.712 0-56.243L903.071 617.758c-15.531-15.531-40.712-15.531-56.243 0z" fill="#FFBB29" stroke="#FFBB29" stroke-width="4.5" stroke-linecap="round" stroke-linejoin="round"/><path d="M122.801 882.06s13 40.9 54.85 40.9h178.62c41.9 0 54.85-40.9 54.85-40.9h-288.32z" fill="#1EA446" stroke="#1F1F1F" stroke-width="4.5" stroke-linecap="round" stroke-linejoin="round"/><path d="M179.26 1046.67h-25.94l30.9-123.7h25.94l-30.9 123.7zM354.66 1046.67h25.93l-30.9-123.7h-25.94l30.91 123.7z" fill="#fff" stroke="#1F1F1F" stroke-width="4.5" stroke-linecap="round" stroke-linejoin="round"/><path d="M54.25 1046.67h965.7" stroke="#1F1F1F" stroke-width="4.5" stroke-linecap="round" stroke-linejoin="round"/><path d="M666.079 925.96c-12 21.95-39.57 62.85-49.55 120.71l342.56-1c2-33.92-55.57-32.93-108.45-51.88-52.88-18.95-53.87-44.89-52.87-67.84l-131.69.01z" fill="#fff" stroke="#1F1F1F" stroke-width="4.5" stroke-linecap="round" stroke-linejoin="round"/><path d="M714.68 925.96h98.76" stroke="#1F1F1F" stroke-width="4.5" stroke-linecap="round" stroke-linejoin="round"/><path d="M545.079 926.96c-12 21.95-39.57 61.85-49.55 119.71h354.16c-15-31.92-67.17-33.92-120-52.87-52.83-18.95-53.87-44.89-52.87-67.84-4.98-.35-88.29-1.08-131.74 1z" fill="#fff" stroke="#1F1F1F" stroke-width="4.5" stroke-linecap="round" stroke-linejoin="round"/><path d="M475.58 953.23l142.99-304.61" stroke="#1F1F1F" stroke-width="4.5" stroke-linecap="round" stroke-linejoin="round"/><path d="M400.029 265.15c2.64 1.17 5 2.06 6.56 2.63-2.166-.9-4.353-1.777-6.56-2.63z" fill="#fff" stroke="#1F1F1F" stroke-width="4.5" stroke-linecap="round" stroke-linejoin="round"/><path d="M291.689 254.56s11 30.26 62.52 34.92c39.78 3.59 54.54-21 54.54-21s-18.44-5.88-25.94-14.63c-6-7-3.66-16-3.66-16a29.103 29.103 0 0 0 23.61-8c8.26-7.75 10.49-21.53 11.09-27.88a3.793 3.793 0 0 1 3.7-3.45l4-.1a5.748 5.748 0 0 0 4.978-3.083 5.737 5.737 0 0 0-.318-5.847 34.623 34.623 0 0 1-6-15.39c-1.06-8.74 3.1-24.72-1.55-40.35-4.65-15.63-12.64-21.28-36.25-20-23.61 1.28-65.21 17.16-79.37 33.25-14.16 16.09-2.91 39.31 8.54 51.21 12.08 12.56 17.62 27.27 6.32 40.57-10.46 12.53-26.21 15.78-26.21 15.78z" fill="#F2D9C4" stroke="#1F1F1F" stroke-width="4.5" stroke-linecap="round" stroke-linejoin="round"/><path d="M340.4 442.78l-7.15-96.77M439 459.74l-8.65-118.39M238.811 518.27l40.57 2.66M313.631 644.63l98.77-42.9" stroke="#1F1F1F" stroke-width="4.5" stroke-linecap="round" stroke-linejoin="round"/><path d="M743.183 390.609c7.379-12.78 5.85-27.476-3.414-32.825-9.265-5.349-22.757.675-30.135 13.455-7.379 12.78-5.85 27.476 3.415 32.825 9.264 5.349 22.756-.675 30.134-13.455z" fill="#fff" stroke="#1F1F1F" stroke-width="4.5" stroke-linecap="round" stroke-linejoin="round"/><path d="M324.38 198.14c-10.93-9.89-16-22.17-12-32.37 4-10.2 11.53-12.86 20.4-12.86s16 12.42 26.16 12.86c10.16.44 15.52-1.33 19.51-13.3 3.99-11.97 8.87-18.18 20-18.18s35-2.21 44.34-12.41c9.34-10.2 8-22.17-1.77-30.6s-23.06 7.54-31 12.86c0 0-26.66.74-68.28 16-36.36 13.31-60.3 34.14-60.3 34.14-6.21 11.09-15.08 27-14.19 36.36 1.18 12.43 14.19 17.74 24.83 12.42 0 0-3.55 12.41 1.77 23.05s17.74 12.86 30.59 4.88c12.85-7.98 9.25-24.43-.06-32.85z" fill="#C99069" stroke="#1F1F1F" stroke-width="4.5" stroke-linecap="round" stroke-linejoin="round"/><path d="M280.22 156.31l1.16-2.07s23.94-20.83 60.3-34.14c41.62-15.22 68.28-16 68.28-16 1.33-3.55-5.32-21.72-6.21-23.5-.89-1.78-24.39-3.1-69.17 13.3-44.78 16.4-67.84 35.48-67.39 37.69.45 2.21 1.77 11.53 3.54 18.18 1.47 5.52 4.14 7.66 9.49 6.54z" fill="#fff" stroke="#1F1F1F" stroke-width="4.5" stroke-linecap="round" stroke-linejoin="round"/><path d="M334.58 93.94c28.73-10.52 48.68-13.74 59.54-14.23-3.6-4.53-10.23-9.68-17.42-14.14-14.71-9.13-36.35-12-54.53-8.43-18.18 3.57-31 10.64-39.91 28.38-7 14.09-6.53 27.89-5.58 37.42 10.62-7.57 30.06-18.8 57.9-29z" fill="#C4EED0" stroke="#1F1F1F" stroke-width="4.5" stroke-linecap="round" stroke-linejoin="round"/><path d="M401.833 167.477c.163-2.568-1.292-4.751-3.248-4.875-1.957-.123-3.675 1.858-3.838 4.427-.162 2.568 1.292 4.751 3.249 4.875 1.957.124 3.675-1.858 3.837-4.427z" fill="#1F1F1F"/><path d="M137.051 794.28c29.93 59.85 99.77 97.76 187.56 85.79 87.79-11.97 239.43-113.73 239.43-113.73M846.831 897.25l-111.62-111.63a39.878 39.878 0 0 1 0-56.24l111.62-111.63a39.89 39.89 0 0 1 56.25 0l40.79 40.8" stroke="#1F1F1F" stroke-width="4.5" stroke-linecap="round" stroke-linejoin="round"/></svg>